<svg xmlns="http://www.w3.org/2000/svg" xmlns:xlink="http://www.w3.org/1999/xlink" width="1144" height="392" viewBox="0 0 1144 392"><defs><style>.a{fill:#fff;}.b{clip-path:url(#c);}.c{opacity:0.05;fill:url(#d);}.d{opacity:0.6;fill:url(#g);}.e{opacity:0.65;fill:url(#h);}.f{filter:url(#e);}.g{filter:url(#a);}</style><filter id="a" x="-96" y="-89" width="1336" height="584" filterUnits="userSpaceOnUse"><feOffset dy="7" input="SourceAlpha"/><feGaussianBlur stdDeviation="32" result="b"/><feFlood flood-opacity="0.071"/><feComposite operator="in" in2="b"/><feComposite in="SourceGraphic"/></filter><clipPath id="c"><g class="g" transform="matrix(1, 0, 0, 1, 0, 0)"><rect class="a" width="1144" height="392" rx="8" transform="translate(68 243)"/></g></clipPath><linearGradient id="d" x1="0.5" y1="1" x2="0.5" gradientUnits="objectBoundingBox"><stop offset="0" stop-color="#003cff" stop-opacity="0.8"/><stop offset="1" stop-color="#819eff" stop-opacity="0.8"/></linearGradient><filter id="e" x="620.182" y="237.937" width="388.701" height="388.662" filterUnits="userSpaceOnUse"><feOffset dy="3" input="SourceAlpha"/><feGaussianBlur stdDeviation="3" result="f"/><feFlood flood-opacity="0.161"/><feComposite operator="in" in2="f"/><feComposite in="SourceGraphic"/></filter><linearGradient id="g" x1="0.5" x2="0.5" y2="1" gradientUnits="objectBoundingBox"><stop offset="0" stop-color="#034b85" stop-opacity="0.051"/><stop offset="0" stop-color="#0436bf" stop-opacity="0.102"/><stop offset="0.384" stop-color="#042fa8" stop-opacity="0.051"/><stop offset="0.724" stop-color="#0a6ac7" stop-opacity="0.067"/><stop offset="1" stop-color="#02604a" stop-opacity="0.102"/></linearGradient><linearGradient id="h" x1="0.5" x2="0.5" y2="1" gradientUnits="objectBoundingBox"><stop offset="0" stop-color="#89a1fc"/><stop offset="0.01" stop-color="#d6e1ff" stop-opacity="0.953"/><stop offset="1" stop-color="#f7f7f7" stop-opacity="0.8"/></linearGradient></defs><g class="b" transform="translate(-68 -243)"><g class="f" transform="matrix(1, 0, 0, 1, 68, 243)"><path class="c" d="M72.232,55.289,189.052,0l73.884,27.555L20.865,261.366,0,183.668Z" transform="matrix(0.72, 0.69, -0.69, 0.72, 810.74, 243.94)"/></g><path class="d" d="M324.475,150.931V17.783L230.8,0,65.627,61.958,0,150.931Z" transform="translate(887.525 486.937)"/><path class="e" d="M-6310.665,939.883l-78.907,57.717-276.453,37.435-45.756-48.621V939.883" transform="translate(6779.781 -696.883)"/></g></svg>